<?xml version="1.0" encoding="UTF-8" standalone="no"?>
<!DOCTYPE svg PUBLIC "-//W3C//DTD SVG 1.1//EN"
 "http://www.w3.org/Graphics/SVG/1.1/DTD/svg11.dtd">
<!-- Generated by graphviz version 11.0.0 (0)
 -->
<!-- Title: snakemake_dag Pages: 1 -->
<svg width="202pt" height="122pt"
 viewBox="0.00 0.00 202.00 121.75" xmlns="http://www.w3.org/2000/svg" xmlns:xlink="http://www.w3.org/1999/xlink">
<g id="graph0" class="graph" transform="scale(1 1) rotate(0) translate(4 117.75)">
<title>snakemake_dag</title>
<polygon fill="white" stroke="none" points="-4,4 -4,-117.75 198,-117.75 198,4 -4,4"/>
<!-- 0 -->
<g id="node1" class="node">
<title>0</title>
<path fill="none" stroke="#d85656" stroke-width="2" d="M112,-36C112,-36 82,-36 82,-36 76,-36 70,-30 70,-24 70,-24 70,-12 70,-12 70,-6 76,0 82,0 82,0 112,0 112,0 118,0 124,-6 124,-12 124,-12 124,-24 124,-24 124,-30 118,-36 112,-36"/>
<text text-anchor="middle" x="97" y="-14.12" font-family="sans" font-size="10.00">all</text>
</g>
<!-- 1 -->
<g id="node2" class="node">
<title>1</title>
<path fill="none" stroke="#59d856" stroke-width="2" d="M76,-113.75C76,-113.75 12,-113.75 12,-113.75 6,-113.75 0,-107.75 0,-101.75 0,-101.75 0,-84 0,-84 0,-78 6,-72 12,-72 12,-72 76,-72 76,-72 82,-72 88,-78 88,-84 88,-84 88,-101.75 88,-101.75 88,-107.75 82,-113.75 76,-113.75"/>
<text text-anchor="middle" x="44" y="-100.25" font-family="sans" font-size="10.00">proc_structural</text>
<text text-anchor="middle" x="44" y="-89" font-family="sans" font-size="10.00">session: ses&#45;01</text>
<text text-anchor="middle" x="44" y="-77.75" font-family="sans" font-size="10.00">subject: sub&#45;001</text>
</g>
<!-- 1&#45;&gt;0 -->
<g id="edge1" class="edge">
<title>1&#45;&gt;0</title>
<path fill="none" stroke="grey" stroke-width="2" d="M59.05,-71.19C64.52,-63.67 70.79,-55.03 76.65,-46.99"/>
<polygon fill="grey" stroke="grey" stroke-width="2" points="79.42,-49.12 82.47,-38.98 73.76,-45.01 79.42,-49.12"/>
</g>
<!-- 2 -->
<g id="node3" class="node">
<title>2</title>
<path fill="none" stroke="#59d856" stroke-width="2" d="M182,-113.75C182,-113.75 118,-113.75 118,-113.75 112,-113.75 106,-107.75 106,-101.75 106,-101.75 106,-84 106,-84 106,-78 112,-72 118,-72 118,-72 182,-72 182,-72 188,-72 194,-78 194,-84 194,-84 194,-101.75 194,-101.75 194,-107.75 188,-113.75 182,-113.75"/>
<text text-anchor="middle" x="150" y="-100.25" font-family="sans" font-size="10.00">proc_structural</text>
<text text-anchor="middle" x="150" y="-89" font-family="sans" font-size="10.00">session: ses&#45;01</text>
<text text-anchor="middle" x="150" y="-77.75" font-family="sans" font-size="10.00">subject: sub&#45;002</text>
</g>
<!-- 2&#45;&gt;0 -->
<g id="edge2" class="edge">
<title>2&#45;&gt;0</title>
<path fill="none" stroke="grey" stroke-width="2" d="M134.95,-71.19C129.48,-63.67 123.21,-55.03 117.35,-46.99"/>
<polygon fill="grey" stroke="grey" stroke-width="2" points="120.24,-45.01 111.53,-38.98 114.58,-49.12 120.24,-45.01"/>
</g>
</g>
</svg>
