<?xml version="1.0" encoding="UTF-8" standalone="no"?>
<!DOCTYPE svg PUBLIC "-//W3C//DTD SVG 1.1//EN"
 "http://www.w3.org/Graphics/SVG/1.1/DTD/svg11.dtd">
<!-- Generated by graphviz version 12.2.0 (20241103.1931)
 -->
<!-- Title: snakemake_dag Pages: 1 -->
<svg width="466pt" height="342pt"
 viewBox="0.00 0.00 466.40 342.25" xmlns="http://www.w3.org/2000/svg" xmlns:xlink="http://www.w3.org/1999/xlink">
<g id="graph0" class="graph" transform="scale(1 1) rotate(0) translate(4 338.25)">
<title>snakemake_dag</title>
<polygon fill="white" stroke="none" points="-4,4 -4,-338.25 462.4,-338.25 462.4,4 -4,4"/>
<!-- 0 -->
<g id="node1" class="node">
<title>0</title>
<path fill="none" stroke="#d85656" stroke-width="2" d="M207.4,-36C207.4,-36 177.4,-36 177.4,-36 171.4,-36 165.4,-30 165.4,-24 165.4,-24 165.4,-12 165.4,-12 165.4,-6 171.4,0 177.4,0 177.4,0 207.4,0 207.4,0 213.4,0 219.4,-6 219.4,-12 219.4,-12 219.4,-24 219.4,-24 219.4,-30 213.4,-36 207.4,-36"/>
<text text-anchor="middle" x="192.4" y="-14.88" font-family="sans" font-size="10.00">all</text>
</g>
<!-- 1 -->
<g id="node2" class="node">
<title>1</title>
<path fill="none" stroke="#56d88a" stroke-width="2" d="M69.65,-334.25C69.65,-334.25 13.15,-334.25 13.15,-334.25 7.15,-334.25 1.15,-328.25 1.15,-322.25 1.15,-322.25 1.15,-300 1.15,-300 1.15,-294 7.15,-288 13.15,-288 13.15,-288 69.65,-288 69.65,-288 75.65,-288 81.65,-294 81.65,-300 81.65,-300 81.65,-322.25 81.65,-322.25 81.65,-328.25 75.65,-334.25 69.65,-334.25"/>
<text text-anchor="middle" x="41.4" y="-320.75" font-family="sans" font-size="10.00">proc_structural</text>
<text text-anchor="middle" x="41.4" y="-308" font-family="sans" font-size="10.00">session: 01</text>
<text text-anchor="middle" x="41.4" y="-295.25" font-family="sans" font-size="10.00">subject: 001</text>
</g>
<!-- 1&#45;&gt;0 -->
<g id="edge1" class="edge">
<title>1&#45;&gt;0</title>
<path fill="none" stroke="grey" stroke-width="2" d="M22.42,-287.02C15.29,-276.91 8.05,-264.52 4.4,-252 -13.34,-191.11 30.69,-87.76 45.4,-72 73.18,-42.24 118.91,-29.16 152,-23.43"/>
<polygon fill="grey" stroke="grey" stroke-width="2" points="152.09,-26.95 161.44,-21.97 151.02,-20.04 152.09,-26.95"/>
</g>
<!-- 3 -->
<g id="node4" class="node">
<title>3</title>
<path fill="none" stroke="#56c1d8" stroke-width="2" d="M57.65,-252C57.65,-252 25.15,-252 25.15,-252 19.15,-252 13.15,-246 13.15,-240 13.15,-240 13.15,-228 13.15,-228 13.15,-222 19.15,-216 25.15,-216 25.15,-216 57.65,-216 57.65,-216 63.65,-216 69.65,-222 69.65,-228 69.65,-228 69.65,-240 69.65,-240 69.65,-246 63.65,-252 57.65,-252"/>
<text text-anchor="middle" x="41.4" y="-230.88" font-family="sans" font-size="10.00">proc_surf</text>
</g>
<!-- 1&#45;&gt;3 -->
<g id="edge9" class="edge">
<title>1&#45;&gt;3</title>
<path fill="none" stroke="grey" stroke-width="2" d="M41.4,-287.18C41.4,-280.36 41.4,-272.78 41.4,-265.56"/>
<polygon fill="grey" stroke="grey" stroke-width="2" points="44.9,-265.83 41.4,-255.83 37.9,-265.83 44.9,-265.83"/>
</g>
<!-- 5 -->
<g id="node6" class="node">
<title>5</title>
<path fill="none" stroke="#d8bc56" stroke-width="2" d="M122.27,-180C122.27,-180 66.52,-180 66.52,-180 60.52,-180 54.52,-174 54.52,-168 54.52,-168 54.52,-156 54.52,-156 54.52,-150 60.52,-144 66.52,-144 66.52,-144 122.27,-144 122.27,-144 128.27,-144 134.27,-150 134.27,-156 134.27,-156 134.27,-168 134.27,-168 134.27,-174 128.27,-180 122.27,-180"/>
<text text-anchor="middle" x="94.4" y="-158.88" font-family="sans" font-size="10.00">post_structural</text>
</g>
<!-- 1&#45;&gt;5 -->
<g id="edge11" class="edge">
<title>1&#45;&gt;5</title>
<path fill="none" stroke="grey" stroke-width="2" d="M58.91,-287.21C65.97,-276.94 73.57,-264.37 78.4,-252 85.65,-233.42 89.65,-211.37 91.83,-193.86"/>
<polygon fill="grey" stroke="grey" stroke-width="2" points="95.31,-194.27 92.9,-183.96 88.35,-193.52 95.31,-194.27"/>
</g>
<!-- 2 -->
<g id="node3" class="node">
<title>2</title>
<path fill="none" stroke="#56d88a" stroke-width="2" d="M320.65,-334.25C320.65,-334.25 264.15,-334.25 264.15,-334.25 258.15,-334.25 252.15,-328.25 252.15,-322.25 252.15,-322.25 252.15,-300 252.15,-300 252.15,-294 258.15,-288 264.15,-288 264.15,-288 320.65,-288 320.65,-288 326.65,-288 332.65,-294 332.65,-300 332.65,-300 332.65,-322.25 332.65,-322.25 332.65,-328.25 326.65,-334.25 320.65,-334.25"/>
<text text-anchor="middle" x="292.4" y="-320.75" font-family="sans" font-size="10.00">proc_structural</text>
<text text-anchor="middle" x="292.4" y="-308" font-family="sans" font-size="10.00">session: 01</text>
<text text-anchor="middle" x="292.4" y="-295.25" font-family="sans" font-size="10.00">subject: 002</text>
</g>
<!-- 2&#45;&gt;0 -->
<g id="edge2" class="edge">
<title>2&#45;&gt;0</title>
<path fill="none" stroke="grey" stroke-width="2" d="M275.06,-287.14C268.04,-276.85 260.42,-264.29 255.4,-252 224.51,-176.3 243.46,-149.5 217.4,-72 214.75,-64.12 211.24,-55.87 207.7,-48.29"/>
<polygon fill="grey" stroke="grey" stroke-width="2" points="210.91,-46.88 203.36,-39.44 204.62,-49.96 210.91,-46.88"/>
</g>
<!-- 4 -->
<g id="node5" class="node">
<title>4</title>
<path fill="none" stroke="#56c1d8" stroke-width="2" d="M308.65,-252C308.65,-252 276.15,-252 276.15,-252 270.15,-252 264.15,-246 264.15,-240 264.15,-240 264.15,-228 264.15,-228 264.15,-222 270.15,-216 276.15,-216 276.15,-216 308.65,-216 308.65,-216 314.65,-216 320.65,-222 320.65,-228 320.65,-228 320.65,-240 320.65,-240 320.65,-246 314.65,-252 308.65,-252"/>
<text text-anchor="middle" x="292.4" y="-230.88" font-family="sans" font-size="10.00">proc_surf</text>
</g>
<!-- 2&#45;&gt;4 -->
<g id="edge10" class="edge">
<title>2&#45;&gt;4</title>
<path fill="none" stroke="grey" stroke-width="2" d="M292.4,-287.18C292.4,-280.36 292.4,-272.78 292.4,-265.56"/>
<polygon fill="grey" stroke="grey" stroke-width="2" points="295.9,-265.83 292.4,-255.83 288.9,-265.83 295.9,-265.83"/>
</g>
<!-- 6 -->
<g id="node7" class="node">
<title>6</title>
<path fill="none" stroke="#d8bc56" stroke-width="2" d="M373.27,-180C373.27,-180 317.52,-180 317.52,-180 311.52,-180 305.52,-174 305.52,-168 305.52,-168 305.52,-156 305.52,-156 305.52,-150 311.52,-144 317.52,-144 317.52,-144 373.27,-144 373.27,-144 379.27,-144 385.27,-150 385.27,-156 385.27,-156 385.27,-168 385.27,-168 385.27,-174 379.27,-180 373.27,-180"/>
<text text-anchor="middle" x="345.4" y="-158.88" font-family="sans" font-size="10.00">post_structural</text>
</g>
<!-- 2&#45;&gt;6 -->
<g id="edge13" class="edge">
<title>2&#45;&gt;6</title>
<path fill="none" stroke="grey" stroke-width="2" d="M309.91,-287.21C316.97,-276.94 324.57,-264.37 329.4,-252 336.65,-233.42 340.65,-211.37 342.83,-193.86"/>
<polygon fill="grey" stroke="grey" stroke-width="2" points="346.31,-194.27 343.9,-183.96 339.35,-193.52 346.31,-194.27"/>
</g>
<!-- 3&#45;&gt;0 -->
<g id="edge3" class="edge">
<title>3&#45;&gt;0</title>
<path fill="none" stroke="grey" stroke-width="2" d="M38.95,-215.08C35.54,-182.19 33.42,-111.88 70.4,-72 92.05,-48.64 125.79,-35.07 152.3,-27.52"/>
<polygon fill="grey" stroke="grey" stroke-width="2" points="152.94,-30.97 161.72,-25.04 151.16,-24.2 152.94,-30.97"/>
</g>
<!-- 3&#45;&gt;5 -->
<g id="edge12" class="edge">
<title>3&#45;&gt;5</title>
<path fill="none" stroke="grey" stroke-width="2" d="M54.77,-215.34C60.32,-208.01 66.89,-199.34 73.06,-191.18"/>
<polygon fill="grey" stroke="grey" stroke-width="2" points="75.77,-193.4 79.02,-183.32 70.19,-189.18 75.77,-193.4"/>
</g>
<!-- 4&#45;&gt;0 -->
<g id="edge4" class="edge">
<title>4&#45;&gt;0</title>
<path fill="none" stroke="grey" stroke-width="2" d="M291.07,-215.29C288.05,-184.22 278.6,-118.75 250.4,-72 244.41,-62.07 236,-52.89 227.44,-45.06"/>
<polygon fill="grey" stroke="grey" stroke-width="2" points="230,-42.65 220.13,-38.79 225.45,-47.96 230,-42.65"/>
</g>
<!-- 4&#45;&gt;6 -->
<g id="edge14" class="edge">
<title>4&#45;&gt;6</title>
<path fill="none" stroke="grey" stroke-width="2" d="M305.77,-215.34C311.32,-208.01 317.89,-199.34 324.06,-191.18"/>
<polygon fill="grey" stroke="grey" stroke-width="2" points="326.77,-193.4 330.02,-183.32 321.19,-189.18 326.77,-193.4"/>
</g>
<!-- 5&#45;&gt;0 -->
<g id="edge5" class="edge">
<title>5&#45;&gt;0</title>
<path fill="none" stroke="grey" stroke-width="2" d="M85.28,-143.17C76.92,-124.09 67.74,-93.66 81.4,-72 96.82,-47.54 126.98,-34.13 151.97,-26.92"/>
<polygon fill="grey" stroke="grey" stroke-width="2" points="152.73,-30.34 161.54,-24.45 150.98,-23.56 152.73,-30.34"/>
</g>
<!-- 7 -->
<g id="node8" class="node">
<title>7</title>
<path fill="none" stroke="#88d856" stroke-width="2" d="M196.4,-108C196.4,-108 102.4,-108 102.4,-108 96.4,-108 90.4,-102 90.4,-96 90.4,-96 90.4,-84 90.4,-84 90.4,-78 96.4,-72 102.4,-72 102.4,-72 196.4,-72 196.4,-72 202.4,-72 208.4,-78 208.4,-84 208.4,-84 208.4,-96 208.4,-96 208.4,-102 202.4,-108 196.4,-108"/>
<text text-anchor="middle" x="149.4" y="-86.88" font-family="sans" font-size="10.00">proc_geodesic_distance</text>
</g>
<!-- 5&#45;&gt;7 -->
<g id="edge15" class="edge">
<title>5&#45;&gt;7</title>
<path fill="none" stroke="grey" stroke-width="2" d="M108.28,-143.34C114.1,-135.93 121,-127.14 127.48,-118.9"/>
<polygon fill="grey" stroke="grey" stroke-width="2" points="130.04,-121.31 133.46,-111.28 124.53,-116.98 130.04,-121.31"/>
</g>
<!-- 6&#45;&gt;0 -->
<g id="edge6" class="edge">
<title>6&#45;&gt;0</title>
<path fill="none" stroke="grey" stroke-width="2" d="M337.29,-143.1C327.79,-123.69 310.49,-92.7 288.4,-72 272.1,-56.73 250.58,-44.33 232.05,-35.37"/>
<polygon fill="grey" stroke="grey" stroke-width="2" points="233.68,-32.27 223.14,-31.25 230.75,-38.62 233.68,-32.27"/>
</g>
<!-- 8 -->
<g id="node9" class="node">
<title>8</title>
<path fill="none" stroke="#88d856" stroke-width="2" d="M446.4,-108C446.4,-108 352.4,-108 352.4,-108 346.4,-108 340.4,-102 340.4,-96 340.4,-96 340.4,-84 340.4,-84 340.4,-78 346.4,-72 352.4,-72 352.4,-72 446.4,-72 446.4,-72 452.4,-72 458.4,-78 458.4,-84 458.4,-84 458.4,-96 458.4,-96 458.4,-102 452.4,-108 446.4,-108"/>
<text text-anchor="middle" x="399.4" y="-86.88" font-family="sans" font-size="10.00">proc_geodesic_distance</text>
</g>
<!-- 6&#45;&gt;8 -->
<g id="edge16" class="edge">
<title>6&#45;&gt;8</title>
<path fill="none" stroke="grey" stroke-width="2" d="M359.03,-143.34C364.67,-136.01 371.37,-127.34 377.66,-119.18"/>
<polygon fill="grey" stroke="grey" stroke-width="2" points="380.4,-121.35 383.74,-111.3 374.86,-117.08 380.4,-121.35"/>
</g>
<!-- 7&#45;&gt;0 -->
<g id="edge7" class="edge">
<title>7&#45;&gt;0</title>
<path fill="none" stroke="grey" stroke-width="2" d="M160.25,-71.34C164.65,-64.18 169.84,-55.73 174.75,-47.73"/>
<polygon fill="grey" stroke="grey" stroke-width="2" points="177.57,-49.83 179.82,-39.48 171.6,-46.17 177.57,-49.83"/>
</g>
<!-- 8&#45;&gt;0 -->
<g id="edge8" class="edge">
<title>8&#45;&gt;0</title>
<path fill="none" stroke="grey" stroke-width="2" d="M346.36,-71.06C310.83,-59.05 264.79,-43.48 232.35,-32.51"/>
<polygon fill="grey" stroke="grey" stroke-width="2" points="233.66,-29.26 223.07,-29.37 231.42,-35.89 233.66,-29.26"/>
</g>
</g>
</svg>
